<?xml version="1.0" encoding="UTF-8" standalone="no"?>
<!DOCTYPE svg PUBLIC "-//W3C//DTD SVG 1.1//EN" "http://www.w3.org/Graphics/SVG/1.1/DTD/svg11.dtd">
<svg width="100%" height="100%" viewBox="0 0 5906 7087" version="1.1" xmlns="http://www.w3.org/2000/svg" xmlns:xlink="http://www.w3.org/1999/xlink" xml:space="preserve" xmlns:serif="http://www.serif.com/" style="fill-rule:evenodd;clip-rule:evenodd;stroke-linejoin:round;stroke-miterlimit:2;">
    <path d="M4980.23,5483.89C4979.94,5796.35 4930.8,5965.95 4836.1,6066.56C4738.99,6169.74 4605.53,6198.58 4474.86,6250.74C4413.26,6275.32 4346.82,6274.45 4275.16,6261.06C4204.24,6247.8 4128.16,6222.3 4046.55,6197.56C3824.84,6130.35 3574.81,6049.08 3297.98,6048.71C2934.08,6048.22 2108.63,6155.15 1787.3,6244.76C1423.1,6346.33 932.736,6087.47 932.736,5424.33L932.736,1733.12C932.736,1580.06 981.607,1372 1087.99,1206.14C1180.37,1062.12 1319.87,949.517 1520.01,963.334C1696.31,975.505 1915.45,1066.23 2146.65,1151.9C2413.44,1250.75 2693.73,1344.71 2948,1351.7C3126.06,1356.6 3408.05,1372.98 3660.86,1351.93C3855.18,1335.75 4033.21,1294.9 4152.16,1222.7C4297.69,1134.36 4417.71,1079.33 4517.52,1055.25C4618.31,1030.93 4698.7,1038.1 4764.13,1074.08C4850.18,1121.4 4896.54,1215.99 4928.22,1319.46C4960.66,1425.43 4974.78,1542.65 4978.89,1652.11L4969.89,1652.11C4965.8,1543.5 4951.8,1427.22 4919.61,1322.1C4888.66,1220.99 4843.88,1128.2 4759.8,1081.96C4696.08,1046.93 4617.77,1040.32 4519.63,1064C4420.5,1087.92 4301.36,1142.66 4156.83,1230.39C4036.92,1303.18 3857.5,1344.58 3661.61,1360.9C3408.44,1381.98 3126.06,1365.6 2947.75,1360.7C2692.58,1353.68 2411.26,1259.54 2143.53,1160.34C1913.22,1075.01 1695,984.437 1519.39,972.313C1322.95,958.751 1186.24,1069.64 1095.57,1211C990.163,1375.33 941.736,1581.47 941.736,1733.12L941.736,5424.33C941.736,6079.5 1425.06,6336.44 1784.88,6236.09C2106.73,6146.33 2933.51,6039.22 3297.99,6039.71C3575.77,6040.09 3826.69,6121.5 4049.16,6188.95C4130.43,6213.58 4206.19,6239.01 4276.81,6252.21C4346.68,6265.27 4411.47,6266.35 4471.52,6242.38C4600.95,6190.72 4733.36,6162.59 4829.55,6060.4C4923.21,5960.88 4970.95,5792.93 4971.23,5483.89L4980.23,5483.89Z" style="fill:white;"/>
    <path d="M5335.07,5483.89C5334.65,5931.78 5230.14,6165.64 5094.5,6309.76C4960.85,6451.76 4786.24,6508.51 4606.41,6580.3C4449.18,6643.06 4270.22,6627.49 4070.28,6573.78C3847.59,6513.96 3590.27,6403.95 3297.49,6403.55C2956.7,6403.09 2183.56,6502.64 1882.62,6586.56C1553.63,6678.32 1146.07,6586.87 873.131,6281.82C699.472,6087.73 577.893,5805.48 577.893,5424.33L577.893,1733.12C577.893,1524.44 644.265,1240.69 789.312,1014.56C949.062,765.506 1198.35,585.439 1544.45,609.333C1747.91,623.38 2003.11,720.295 2269.94,819.16C2499.43,904.192 2739.03,990.98 2957.75,996.994C3126.02,1001.62 3392.5,1018.2 3631.41,998.308C3763.67,987.294 3887.08,968.504 3968.03,919.363C4422.4,643.555 4732.81,651.899 4935.11,763.144C5069.3,836.934 5166.44,960.546 5230.02,1111.59C5298.94,1275.33 5327.81,1472.88 5333.85,1652.11L5324.85,1652.11C5318.83,1474.02 5290.2,1277.76 5221.72,1115.08C5158.97,965.994 5063.23,843.864 4930.78,771.03C4730.31,660.798 4422.94,653.761 3972.7,927.057C3890.79,976.782 3765.99,996.132 3632.16,1007.28C3392.89,1027.2 3126.02,1010.62 2957.5,1005.99C2737.88,999.951 2497.25,912.981 2266.81,827.599C2000.89,729.069 1746.6,632.311 1543.83,618.312C1201.43,594.674 954.929,773.03 796.887,1019.42C652.821,1244.02 586.893,1525.85 586.893,1733.12L586.893,5424.33C586.893,5802.78 707.409,6083.1 879.838,6275.82C1150.31,6578.12 1554.17,6668.82 1880.2,6577.89C2181.66,6493.82 2956.12,6394.09 3297.51,6394.55C3591.15,6394.95 3849.26,6505.1 4072.62,6565.09C4270.44,6618.23 4447.5,6634.04 4603.07,6571.94C4781.66,6500.65 4955.23,6444.61 5087.95,6303.59C5222.55,6160.58 5325.65,5928.34 5326.07,5483.89L5335.07,5483.89Z" style="fill:white;"/>
</svg>
